<svg width="19" height="18" viewBox="0 0 19 18" fill="none" xmlns="http://www.w3.org/2000/svg">
<path d="M16.0527 3.9225C14.8452 3.8025 13.6377 3.7125 12.4227 3.645V3.6375L12.2577 2.6625C12.1452 1.9725 11.9802 0.9375 10.2252 0.9375H8.26024C6.51274 0.9375 6.34774 1.9275 6.22774 2.655L6.07024 3.615C5.37274 3.66 4.67524 3.705 3.97774 3.7725L2.44774 3.9225C2.13274 3.9525 1.90774 4.23 1.93774 4.5375C1.96774 4.845 2.23774 5.07 2.55274 5.04L4.08274 4.89C8.01274 4.5 11.9727 4.65 15.9477 5.0475C15.9702 5.0475 15.9852 5.0475 16.0077 5.0475C16.2927 5.0475 16.5402 4.83 16.5702 4.5375C16.5927 4.23 16.3677 3.9525 16.0527 3.9225Z" fill="#1D2041"/>
<path opacity="0.3991" d="M14.6723 6.105C14.4923 5.9175 14.2448 5.8125 13.9898 5.8125H4.50981C4.25481 5.8125 3.99981 5.9175 3.82731 6.105C3.65481 6.2925 3.55731 6.5475 3.57231 6.81L4.03731 14.505C4.11981 15.645 4.22481 17.07 6.84231 17.07H11.6573C14.2748 17.07 14.3798 15.6525 14.4623 14.505L14.9273 6.8175C14.9423 6.5475 14.8448 6.2925 14.6723 6.105Z" fill="#1D2041"/>
<path fill-rule="evenodd" clip-rule="evenodd" d="M7.43506 12.75C7.43506 12.4393 7.6869 12.1875 7.99756 12.1875H10.4951C10.8057 12.1875 11.0576 12.4393 11.0576 12.75C11.0576 13.0607 10.8057 13.3125 10.4951 13.3125H7.99756C7.6869 13.3125 7.43506 13.0607 7.43506 12.75Z" fill="#1D2041"/>
<path fill-rule="evenodd" clip-rule="evenodd" d="M6.8125 9.75C6.8125 9.43934 7.06434 9.1875 7.375 9.1875H11.125C11.4357 9.1875 11.6875 9.43934 11.6875 9.75C11.6875 10.0607 11.4357 10.3125 11.125 10.3125H7.375C7.06434 10.3125 6.8125 10.0607 6.8125 9.75Z" fill="#1D2041"/>
</svg>
